# xmcd
#
# Track frame offsets: 
#        150
#        25554
#        47996
#        89510
#        123022
#        159975
#        247960
#        275473
#        303803
#
# Disc length: 4538 seconds
#
# Revision: 0
# Processed by: cddbd v1.5.2PL0 Copyright (c) Steve Scherf et al.
# Submitted via: ExactAudioCopy v0.99pb4
#
DISCID=6411b809
DTITLE=Blind Faith - Goetheberg 03 March 1969
DYEAR=1969
DGENRE=Blues
TTITLE0=Well All Right
TTITLE1=Sleeping On The Ground
TTITLE2=Sea Of Joy
TTITLE3=Under My Thumb
TTITLE4=Can't Find My Way Home
TTITLE5=Do What You Like
TTITLE6=Presence Of The Lord
TTITLE7=Means To An End
TTITLE8=Had To Cry Today
EXTD=
EXTT0=
EXTT1=
EXTT2=
EXTT3=
EXTT4=
EXTT5=
EXTT6=
EXTT7=
EXTT8=
PLAYORDER=
